<?xml version="1.0" encoding="UTF-8"?>
<svg version="1.1" xmlns="http://www.w3.org/2000/svg" width="1080" height="540">
<path d="M0 0 C2.09890807 -0.00299705 4.1978156 -0.00640083 6.29672241 -0.01017761 C11.96153416 -0.01896032 17.62633077 -0.02135313 23.29114866 -0.0219934 C26.8336029 -0.02270648 30.37605334 -0.02484553 33.91850662 -0.02749062 C46.28486626 -0.03672081 58.65121516 -0.04082789 71.01757812 -0.04003906 C82.53582053 -0.03943696 94.05401631 -0.05002075 105.57224691 -0.06578273 C115.47742189 -0.07885343 125.3825816 -0.08422325 135.28776515 -0.08358365 C141.19720456 -0.08332879 147.10660237 -0.08617455 153.01603317 -0.0967617 C158.56633964 -0.10643621 164.11656461 -0.1065263 169.66687393 -0.09924507 C171.70221831 -0.09819885 173.73756776 -0.10056432 175.77290344 -0.10660553 C178.55274895 -0.11432218 181.33231267 -0.10968297 184.1121521 -0.10197449 C184.91555759 -0.10711805 185.71896308 -0.11226161 186.54671419 -0.11756104 C192.44970394 -0.08143136 197.6087765 0.68361489 202.74072266 3.83276367 C208.11286056 9.35412763 208.42814333 15.32833023 208.37167358 22.64039612 C208.37635356 23.57727719 208.38103353 24.51415826 208.38585532 25.47942966 C208.39779011 28.60850215 208.38835389 31.73713545 208.37890625 34.86621094 C208.38297259 37.11363988 208.38831481 39.36106683 208.39483643 41.60848999 C208.40850756 47.70544124 208.40321232 53.80224011 208.39369917 59.899194 C208.38610252 66.27988167 208.39314811 72.66055632 208.39785767 79.04124451 C208.4036643 90.44141126 208.39434389 101.84149362 208.37907965 113.2416461 C208.36567377 123.57372937 208.36800797 133.90571152 208.38183594 144.23779297 C208.39789725 156.24417531 208.40386318 168.25048132 208.39499915 180.25687832 C208.39032111 186.60960152 208.38970154 192.9622551 208.39960861 199.31497383 C208.40827057 205.28630004 208.40227026 211.25743514 208.38492584 217.22874069 C208.38095709 219.42091365 208.38210166 221.61310267 208.38871384 223.80526924 C208.39690373 226.79610202 208.38663832 229.78632125 208.37167358 232.77711487 C208.37836575 233.64589014 208.38505791 234.51466541 208.39195287 235.40976721 C208.34349105 240.39844212 207.75447468 243.82313464 204.99072266 248.14526367 C200.22139338 252.44929253 197.72030022 253.27056045 191.35375977 253.2746582 C190.33160622 253.27728668 190.33160622 253.27728668 189.2888031 253.27996826 C187.03186512 253.28437684 184.77500521 253.28145261 182.51806641 253.27807617 C180.95390304 253.27874942 179.38973978 253.27971962 177.82557678 253.28097534 C174.54622401 253.2824509 171.26689845 253.28030201 167.98754883 253.27563477 C163.77495379 253.26993285 159.56242239 253.27322029 155.34982967 253.27920723 C152.12003597 253.28281265 148.89025748 253.28167443 145.66046333 253.27907944 C144.10665441 253.27841036 142.55284412 253.27923793 140.99903679 253.28155899 C138.83208405 253.28408572 136.66523592 253.28024489 134.49829102 253.2746582 C133.26300156 253.27386261 132.0277121 253.27306702 130.75498962 253.27224731 C127.99072266 253.14526367 127.99072266 253.14526367 126.99072266 252.14526367 C126.8838604 250.10648316 126.84826405 248.0639591 126.8392334 246.0223999 C126.83288478 245.05248277 126.83288478 245.05248277 126.82640791 244.06297135 C126.81331616 241.880439 126.80734206 239.69794323 126.80126953 237.51538086 C126.79333206 235.9568611 126.78494451 234.39834358 126.77613831 232.83982849 C126.75804161 229.47529495 126.74303997 226.11076647 126.73036194 222.74620819 C126.71018417 217.42674099 126.68252401 212.10732917 126.65368652 206.78790283 C126.59350982 195.4903824 126.54174467 184.19282858 126.49072266 172.89526367 C126.43566034 160.71391096 126.37911719 148.53257509 126.31317377 136.35127568 C126.28482989 131.06314853 126.26123087 125.77502773 126.24124908 120.48686266 C126.22784959 117.19466946 126.21043709 113.90250633 126.1919384 110.61033821 C126.18419044 109.08374099 126.17811732 107.55713421 126.17384529 106.0305233 C126.1677837 103.94565182 126.15572782 101.86089657 126.14221191 99.77606201 C126.13705818 98.60944912 126.13190445 97.44283623 126.12659454 96.24087143 C126.05473817 92.80264712 126.05473817 92.80264712 124.99072266 88.14526367 C136.87072266 87.65026367 136.87072266 87.65026367 148.99072266 87.14526367 C148.63008467 81.39713356 148.63008467 81.39713356 145.99072266 79.14526367 C142.89798089 78.08601458 139.97768693 78.00971462 136.72625732 77.98704529 C135.12773422 77.97236206 135.12773422 77.97236206 133.49691772 77.9573822 C131.7511998 77.94874901 131.7511998 77.94874901 129.97021484 77.93994141 C128.74068085 77.93004181 127.51114685 77.92014221 126.24435425 77.90994263 C122.87693512 77.88377587 119.50953943 77.86190518 116.14208126 77.84194064 C112.62132675 77.8200527 109.100615 77.79267777 105.57989502 77.7658844 C98.9147666 77.71599545 92.2496144 77.67104256 85.58443952 77.62786204 C77.99558749 77.57845718 70.40677839 77.52355111 62.81796789 77.46818244 C47.20892558 77.35442071 31.5998432 77.24776418 15.99072266 77.14526367 C15.99072266 80.77526367 15.99072266 84.40526367 15.99072266 88.14526367 C17.35801514 88.11907959 18.72530762 88.09289551 20.1340332 88.06591797 C25.21231692 87.97534082 30.29052941 87.91798639 35.36938477 87.87060547 C37.56644706 87.84547859 39.7634259 87.81137121 41.96020508 87.76806641 C45.1203267 87.70733606 48.27934223 87.67903534 51.43994141 87.65698242 C52.91052254 87.61827278 52.91052254 87.61827278 54.41081238 87.57878113 C61.26114867 87.57597086 61.26114867 87.57597086 65.01342773 90.50390625 C65.66593506 91.3755542 66.31844238 92.24720215 66.99072266 93.14526367 C68.07353516 94.50651367 68.07353516 94.50651367 69.17822266 95.89526367 C72.93623527 102.63376905 74.13856887 110.62516686 72.56103516 118.21166992 C70.85310552 123.76771263 67.76147923 126.93661323 62.99072266 130.14526367 C59.45259565 131.99856829 56.93288496 132.2107481 52.99072266 132.14526367 C52.66458984 131.31381836 52.33845703 130.48237305 52.00244141 129.62573242 C51.56544922 128.53905273 51.12845703 127.45237305 50.67822266 126.33276367 C50.24896484 125.25381836 49.81970703 124.17487305 49.37744141 123.06323242 C48.12251235 120.42257888 47.27394693 118.90930517 44.99072266 117.14526367 C41.30076256 116.02223234 39.68083543 115.8078752 36.17822266 117.52026367 C34.12266183 118.96467088 34.12266183 118.96467088 32.99072266 120.14526367 C32.37072844 125.80867235 32.71156871 130.33583788 35.99072266 135.14526367 C38.7721494 137.74529302 41.22139921 139.78743881 44.67822266 141.39526367 C47.74530679 143.71630032 48.13849236 145.80811917 49.18994141 149.42651367 C52.76478088 161.56352963 57.56007244 176.29117078 68.99072266 183.14526367 C73.94163318 184.84830244 78.23130506 184.23476408 82.99072266 182.14526367 C84.22339614 181.13690305 84.22339614 181.13690305 84.08837891 179.07885742 C84.07677734 178.25514648 84.06517578 177.43143555 84.05322266 176.58276367 C84.04419922 175.75647461 84.03517578 174.93018555 84.02587891 174.07885742 C84.01427734 173.44077148 84.00267578 172.80268555 83.99072266 172.14526367 C83.35005859 172.18006836 82.70939453 172.21487305 82.04931641 172.25073242 C75.62570267 172.45176951 70.5974898 172.10352343 65.40478516 167.84448242 C60.04794925 162.36528225 56.20855442 153.89912156 55.85791016 146.24682617 C55.90173828 145.55331055 55.94556641 144.85979492 55.99072266 144.14526367 C56.84794922 143.98670898 57.70517578 143.8281543 58.58837891 143.66479492 C66.27047708 142.22585696 66.27047708 142.22585696 72.92822266 138.39526367 C75.99072266 136.14526367 75.99072266 136.14526367 78.82666016 136.40698242 C81.80273368 137.10139958 84.73301261 137.89380042 87.67822266 138.70776367 C95.21657077 140.51591901 102.50213462 140.33630581 110.19384766 140.15307617 C111.44681641 140.15049805 112.69978516 140.14791992 113.99072266 140.14526367 C114.99072266 141.14526367 114.99072266 141.14526367 115.11377048 143.01745701 C115.11284869 143.84246173 115.1119269 144.66746645 115.11097717 145.51747131 C115.11303917 146.93311119 115.11303917 146.93311119 115.11514282 148.37734985 C115.11154755 149.42103729 115.10795227 150.46472473 115.10424805 151.54003906 C115.10439407 152.63258499 115.1045401 153.72513092 115.10469055 154.8507843 C115.10399088 158.481516 115.09619594 162.11219713 115.08837891 165.74291992 C115.08651492 168.25255811 115.08509093 170.76219665 115.08409119 173.27183533 C115.08065614 179.2146096 115.07276538 185.15736751 115.0627417 191.10013336 C115.05048519 198.52728292 115.04510058 205.95443472 115.03955078 213.3815918 C115.02881076 226.6361584 115.01192348 239.89070988 114.99072266 253.14526367 C95.66720382 253.23872044 76.34373088 253.30924946 57.02003288 253.35251236 C48.04762083 253.37313435 39.07534924 253.40124796 30.10302734 253.44702148 C22.28240525 253.48690042 14.46188489 253.51269913 6.64116395 253.52161765 C2.50041303 253.52683063 -1.64004688 253.53907528 -5.7807045 253.5681839 C-9.6795166 253.59536984 -13.57791829 253.60370235 -17.47681618 253.5976944 C-18.90626952 253.59879322 -20.33573684 253.60672853 -21.76510811 253.62208557 C-33.89985099 253.74604561 -33.89985099 253.74604561 -37.65670776 251.49188232 C-42.46758316 246.69317625 -44.45842547 243.04382115 -44.54425097 236.32658577 C-44.53532808 235.44545553 -44.52640519 234.56432529 -44.51721191 233.65649414 C-44.52345188 232.70821684 -44.52969184 231.75993954 -44.53612089 230.78292656 C-44.55206053 227.60918095 -44.53944252 224.43620232 -44.52685547 221.26245117 C-44.53227614 218.98561149 -44.53939848 216.70877532 -44.5480957 214.4319458 C-44.56633837 208.2501898 -44.55925744 202.0687007 -44.54657936 195.88694 C-44.53645669 189.41949236 -44.54584301 182.95206767 -44.55212402 176.48461914 C-44.55986884 164.92758725 -44.54743336 153.37069188 -44.52708668 141.81368136 C-44.50921605 131.33886217 -44.51232029 120.86422029 -44.53076172 110.3894043 C-44.55217651 98.22003668 -44.56013125 86.05080822 -44.54831266 73.88141823 C-44.54207453 67.44147102 -44.54125104 61.00164592 -44.55445862 54.56170654 C-44.56600776 48.50744205 -44.55800804 42.45351264 -44.53488159 36.39928436 C-44.52958956 34.1764761 -44.53111667 31.95363967 -44.53993225 29.73084259 C-44.5508514 26.69819125 -44.53716726 23.66661586 -44.51721191 20.6340332 C-44.5261348 19.75290297 -44.53505769 18.87177273 -44.54425097 17.96394157 C-44.47486982 12.5337434 -43.59977555 9.46531697 -40.00927734 5.14526367 C-31.16585086 -3.24465376 -11.49129741 -0.00329265 0 0 Z " fill="#010004" transform="translate(157.00927734375,135.854736328125)"/>
<path d="M0 0 C197.01 0 394.02 0 597 0 C597.33 5.61 597.66 11.22 598 17 C597 18 597 18 593.40234375 18.09765625 C591.91403133 18.0909822 590.42573568 18.07902183 588.9375 18.0625 C588.17888672 18.05798828 587.42027344 18.05347656 586.63867188 18.04882812 C584.75908129 18.0370068 582.87953101 18.01907078 581 18 C581.15984375 18.77859375 581.3196875 19.5571875 581.484375 20.359375 C582.14278277 25.00813291 582.22331721 29.56049887 582.25 34.25 C582.270625 35.14074219 582.29125 36.03148437 582.3125 36.94921875 C582.3633839 45.71397007 580.7375033 54.11499604 575 61 C569.84210526 65 569.84210526 65 566 65 C572.32063875 77.61139268 578.77402236 89.06006369 589 99 C582.72664703 103.42670836 576.40987767 107.77319661 570 112 C566.27232984 108.51178088 563.59305123 105.07846761 561 100.6875 C560.63116699 100.06302979 560.26233398 99.43855957 559.88232422 98.79516602 C553.98329444 88.68682043 548.47563281 78.34218746 543 68 C542.65420898 67.34789551 542.30841797 66.69579102 541.95214844 66.02392578 C540 62.25091374 540 62.25091374 540 60 C538.96875 60.0825 537.9375 60.165 536.875 60.25 C532.3495723 59.95803692 530.47799091 58.83092283 527 56 C524.76624059 52.64936089 524.70939116 50.99461935 525.33984375 47.07421875 C526.52733948 43.34309311 528.64664835 40.98021197 532 39 C535.07815998 38.21843594 536.7226785 38.47979024 540 39 C542.8506042 40.81402085 544.72001343 42.66401611 546.875 45.25 C549.01249221 47.33891194 549.01249221 47.33891194 552.625 47.375 C556.06832602 47.34813734 556.06832602 47.34813734 558 45 C558.37207354 42.28384136 558.37207354 42.28384136 558.4140625 39.1171875 C558.45273437 37.95058594 558.49140625 36.78398437 558.53125 35.58203125 C558.5621875 34.35871094 558.593125 33.13539063 558.625 31.875 C558.66367187 30.64394531 558.70234375 29.41289062 558.7421875 28.14453125 C558.8366999 25.09650624 558.92225494 22.04849138 559 19 C558.07364746 19.00523682 557.14729492 19.01047363 556.19287109 19.01586914 C552.68521475 19.03312994 549.17760493 19.04555481 545.66992188 19.05493164 C544.16503172 19.05989458 542.66014621 19.0666671 541.15527344 19.07543945 C531.37983618 19.13090756 521.74550642 18.86081101 512 18 C512.16145917 18.58301817 512.32291834 19.16603634 512.48927021 19.76672173 C513.28551298 23.24846826 513.19684748 26.76162205 513.23706055 30.31689453 C513.25017273 31.15307312 513.26328491 31.98925171 513.27679443 32.85076904 C513.31853596 35.61140394 513.35307326 38.3720678 513.38671875 41.1328125 C513.41237533 43.05044724 513.43815933 44.96808028 513.46406555 46.88571167 C513.51699981 50.9021256 513.56593593 54.91856659 513.61254883 58.93505859 C513.67306226 64.09153645 513.74727018 69.2477187 513.82492352 74.40396309 C513.88239445 78.36201647 513.93075049 82.3201425 513.976511 86.27834702 C513.9999697 88.18025897 514.02673889 90.08213298 514.05682945 91.98395157 C514.09780968 94.63658845 514.12609697 97.28906591 514.15112305 99.94189453 C514.16609329 100.73258331 514.18106354 101.52327209 514.19648743 102.33792114 C514.20754604 104.22638447 514.11341152 106.11491277 514 108 C512 110 512 110 509.95288086 110.24291992 C509.13182861 110.23881104 508.31077637 110.23470215 507.46484375 110.23046875 C506.57345703 110.22853516 505.68207031 110.22660156 504.76367188 110.22460938 C503.83103516 110.21236328 502.89839844 110.20011719 501.9375 110.1875 C501.00099609 110.18685547 500.06449219 110.18621094 499.09960938 110.18554688 C492.14019224 110.14019224 492.14019224 110.14019224 491 109 C490.90480632 106.2001028 490.87446056 103.42493826 490.88647461 100.62475586 C490.88632858 99.74678848 490.88618256 98.86882111 490.8860321 97.96424866 C490.88673156 95.04775565 490.89452545 92.13132567 490.90234375 89.21484375 C490.90420782 87.19845108 490.90563177 85.18205796 490.90663147 83.16566467 C490.91045756 77.84734862 490.92028861 72.5290597 490.93133545 67.21075439 C490.94154762 61.78829312 490.94612867 56.36582748 490.95117188 50.94335938 C490.9619108 40.29556097 490.97898831 29.64778274 491 19 C489.95934891 19.00261841 488.91869781 19.00523682 487.84651184 19.00793457 C483.90868859 19.01712687 479.97086625 19.02277578 476.03303528 19.02746582 C474.34311258 19.02994834 472.65319093 19.03333546 470.96327209 19.03771973 C456.61785977 19.07394888 442.32886219 18.73092554 428 18 C428.1429248 18.67981934 428.28584961 19.35963867 428.43310547 20.06005859 C428.70985107 21.40318115 428.70985107 21.40318115 428.9921875 22.7734375 C429.1763623 23.65950684 429.36053711 24.54557617 429.55029297 25.45849609 C430.06050635 28.34194959 430.15380034 31.07779359 430 34 C430.99 33.34 431.98 32.68 433 32 C440.14473138 28.4530604 449.40076606 28.74456606 456.9765625 30.8125 C464.90657359 34.34786098 470.75976854 40.79432697 474.5 48.5625 C477.41350532 56.93719465 477.68136986 67.44251735 473.9375 75.5625 C468.90517012 83.93102629 462.03079546 89.30332823 453 93 C447.36664242 94.37596378 442.30076048 94.65038024 437 92 C433.78966738 89.74409059 432.72996646 87.83297544 432.0625 84.0625 C431.67388191 81.3093324 431.99876304 80.00293779 433.09375 77.40234375 C435.56605913 74.2866263 437.67464933 73.69591168 441.4375 72.5 C446.52335495 70.87993244 449.00678145 69.47213741 452 65 C453.43304064 62.13391871 453.30644155 60.18699217 453 57 C450.7241177 52.77518254 450.7241177 52.77518254 447 50 C442.30176207 49.33019011 438.25219668 49.37818266 434.1875 52 C428.4932925 56.67926774 426.08571263 63.89744061 425 71 C424.55054032 78.67962808 425.43916868 85.85742073 426.9375 93.375 C427.11990234 94.33277344 427.30230469 95.29054688 427.49023438 96.27734375 C428.15948188 99.77689977 428.83421196 103.26996115 429.62329102 106.74462891 C429.80976196 107.8610376 429.80976196 107.8610376 430 109 C428.37799485 110.62200515 426.57976969 110.1299075 424.34375 110.1328125 C423.40402344 110.13410156 422.46429687 110.13539063 421.49609375 110.13671875 C420.01302734 110.13091797 420.01302734 110.13091797 418.5 110.125 C417.51128906 110.12886719 416.52257812 110.13273437 415.50390625 110.13671875 C414.56417969 110.13542969 413.62445312 110.13414062 412.65625 110.1328125 C411.78806641 110.13168457 410.91988281 110.13055664 410.02539062 110.12939453 C408 110 408 110 407 109 C406.91314397 107.43827255 406.89297781 105.87270656 406.90234375 104.30859375 C406.90556641 103.36435547 406.90878906 102.42011719 406.91210938 101.44726562 C406.92048828 100.45404297 406.92886719 99.46082031 406.9375 98.4375 C406.94201172 97.44041016 406.94652344 96.44332031 406.95117188 95.41601562 C406.96299993 92.94395151 406.97948151 90.47200482 407 88 C406.35571045 88.30736084 405.7114209 88.61472168 405.04760742 88.93139648 C396.96969543 92.6883852 389.02478217 93.28978077 380.375 91.0625 C373.21610914 88.2980467 366.91176541 82.43506372 363.4375 75.625 C360.05774928 67.10215035 359.3795772 57.23974855 362.625 48.5 C366.32278511 40.67626518 372.32289452 34.27999882 380.421875 31.02734375 C386.34070146 29.09924119 391.92689338 27.56588358 397.8125 30.3125 C400.35214078 32.27165146 401.8237304 33.88704192 402.3359375 37.12109375 C402.43968899 43.27355732 402.43968899 43.27355732 400.5625 46.375 C398.13195823 47.91631917 396.22796576 48.61506551 393.5 49.4375 C390.44846964 50.38764701 388.95410591 51.03805852 386.4375 53.125 C384.45836731 57.08326538 384.33049777 60.64823553 385 65 C386.09141944 67.67850536 386.59720294 68.7436746 389.0625 70.3125 C394.14418978 71.50183165 399.09226271 70.63591243 404 69 C405.1281381 66.68076964 405.1281381 66.68076964 406 64 C406.33 63.2678125 406.66 62.535625 407 61.78125 C411.73305524 50.98396774 414.21710442 37.78160172 410.05175781 26.41162109 C409.06169961 23.92861104 408.04701058 21.45947569 407 19 C378.59403391 17.38379598 378.59403391 17.38379598 350.27368164 18.50830078 C349.47104385 18.59991486 348.66840607 18.69152893 347.84144592 18.78591919 C347.23376877 18.85656586 346.62609161 18.92721252 346 19 C345.98969254 19.99478867 345.97938507 20.98957733 345.96876526 22.01451111 C345.87076873 31.4153809 345.76801141 40.81618837 345.66066074 50.21695614 C345.60562948 55.0493193 345.55224256 59.88168868 345.50268555 64.71411133 C345.45474822 69.38257832 345.40239744 74.05097734 345.34705925 78.71936226 C345.32676794 80.49541073 345.30803424 82.27147775 345.29092598 84.04755974 C345.26658634 86.54601572 345.23657623 89.04434681 345.20532227 91.54272461 C345.1995668 92.26777695 345.19381134 92.99282928 345.18788147 93.73985291 C344.9865295 108.0134705 344.9865295 108.0134705 343 110 C339.8617655 110.24966567 336.70950387 110.18521791 333.5625 110.1875 C332.23508789 110.20586914 332.23508789 110.20586914 330.88085938 110.22460938 C330.03458984 110.22654297 329.18832031 110.22847656 328.31640625 110.23046875 C327.14766968 110.23663208 327.14766968 110.23663208 325.95532227 110.24291992 C324 110 324 110 322 108 C321.75276184 105.68353271 321.75276184 105.68353271 321.75708008 102.74121094 C321.75404373 101.63604126 321.75100739 100.53087158 321.74787903 99.39221191 C321.75502426 98.18512573 321.76216949 96.97803955 321.76953125 95.734375 C321.76962692 94.48474976 321.7697226 93.23512451 321.76982117 91.94763184 C321.77291339 88.57629975 321.7852855 85.2052702 321.80276489 81.83399963 C321.81246138 79.75826725 321.81831642 77.68256139 321.82275391 75.60681152 C321.86408464 56.38509873 322.14645117 37.20484871 323 18 C315.41 18 307.82 18 300 18 C300.33 20.64 300.66 23.28 301 26 C301.06968391 27.57170946 301.10922398 29.14553906 301.09765625 30.71875 C301.09443359 31.50507813 301.09121094 32.29140625 301.08789062 33.1015625 C301.07951172 33.89304688 301.07113281 34.68453125 301.0625 35.5 C301.05798828 36.32242188 301.05347656 37.14484375 301.04882812 37.9921875 C301.03718489 39.99482396 301.01925556 41.99742227 301 44 C297.37803776 46.2596298 294.25378139 46.29371337 290.0390625 46.37890625 C289.03678116 46.40439796 289.03678116 46.40439796 288.01425171 46.43040466 C285.88459659 46.48334863 283.75495605 46.52370781 281.625 46.5625 C279.50228796 46.60666284 277.37971386 46.65361123 275.25717163 46.70530701 C273.32603851 46.75152546 271.39470655 46.78920281 269.46337891 46.82641602 C266.23115627 46.98841449 263.17615164 47.39598956 260 48 C260.12375 49.27875 260.2475 50.5575 260.375 51.875 C260.44460938 52.59429687 260.51421875 53.31359375 260.5859375 54.0546875 C260.86374749 56.22668245 260.86374749 56.22668245 263 58 C265.06857257 58.21171282 265.06857257 58.21171282 267.4375 58.0546875 C268.32816162 58.02721436 269.21882324 57.99974121 270.13647461 57.97143555 C271.08143799 57.93961182 272.02640137 57.90778809 273 57.875 C282.52882522 57.71839478 289.60616391 58.50563484 297.375 64.375 C302.74514028 69.74514028 306.02259129 75.13797196 306.375 82.75 C306.27196776 88.04427199 304.87415393 92.5397745 302 97 C297.95573322 99.69617786 294.74901862 99.77534998 290 99 C287.0828775 97.67187919 286.14317718 96.58280327 284 94 C283.42537804 90.04947402 283.80003424 87.56656966 285.125 83.8125 C286.22088577 81.1033019 286.22088577 81.1033019 285.5 78.6875 C284.05060769 76.77431707 284.05060769 76.77431707 281.375 76.125 C273.69878125 75.8406956 268.74652563 78.19168264 263 83 C261.75639994 86.73080019 261.35497612 90.1298567 262 94 C267.68450093 102.0683239 278.86221546 104.16375079 288 106 C292.65657362 106.75499331 297.31962689 107.41149155 302 108 C301.45359605 112.24083972 300.47669427 115.52575139 298.5 119.3125 C298.0565625 120.17488281 297.613125 121.03726563 297.15625 121.92578125 C296 124 296 124 295 125 C277.12651312 125.13084544 259.09150901 119.3839831 245.91796875 107.05078125 C239.56138174 100.23919644 237.41092464 93.96685978 237.71875 84.66796875 C238.52228094 77.04558499 242.22068322 71.81560877 247 66 C246.61328125 65.57589844 246.2265625 65.15179688 245.828125 64.71484375 C239.91136043 58.05116088 236.52001483 53.47905816 236.6640625 44.33203125 C237.02040008 41.8583855 237.76135761 40.15523777 239 38 C239.66 38 240.32 38 241 38 C241.24105469 37.39285156 241.48210937 36.78570312 241.73046875 36.16015625 C244.57774765 31.3154017 250.94768005 29.66051676 256.05859375 28.015625 C264.08701648 25.93236231 271.73874822 25.66558651 280 26 C279.67 23.69 279.34 21.38 279 19 C249.795 18.505 249.795 18.505 220 18 C220 25.59 220 33.18 220 41 C219.95106414 46.69575592 219.89527902 52.39063301 219.81640625 58.0859375 C219.80662184 58.81381092 219.79683743 59.54168434 219.78675652 60.29161453 C219.7354663 64.10540567 219.68242514 67.91916702 219.62768555 71.73291016 C219.57167599 75.65897276 219.52186866 79.58509094 219.47328281 83.51125145 C219.43451672 86.55832825 219.39140844 89.60533212 219.34705925 92.65233231 C219.3266972 94.10284871 219.30797416 95.55338908 219.29092598 97.00394821 C219.26699591 99.00578493 219.23634175 101.00753793 219.20532227 103.00927734 C219.18977798 104.14569672 219.1742337 105.28211609 219.15821838 106.45297241 C219 109 219 109 218 110 C216.22130274 110.15764405 214.43681524 110.25100677 212.65234375 110.31640625 C211.57275391 110.35830078 210.49316406 110.40019531 209.38085938 110.44335938 C208.24455078 110.48267578 207.10824219 110.52199219 205.9375 110.5625 C204.79732422 110.60568359 203.65714844 110.64886719 202.48242188 110.69335938 C199.65507805 110.79982839 196.82764262 110.90184207 194 111 C194.45511963 109.87307739 194.45511963 109.87307739 194.91943359 108.72338867 C201.28855013 92.67108526 203.77450877 77.42261592 198.265625 60.69921875 C196.84067982 57.6602153 195.33794382 55.41154575 193 53 C189.32286601 51.90835085 185.92847682 52.52385804 182.5625 54.25 C179.94641203 57.18001853 179.87761956 60.48136689 179.71875 64.29296875 C179.68136719 65.08767578 179.64398437 65.88238281 179.60546875 66.70117188 C179.53466004 68.37042173 179.46435444 70.039693 179.39453125 71.70898438 C179.10197685 77.89802315 179.10197685 77.89802315 178 79 C175.16091726 79.2639643 172.34518629 79.46872159 169.5 79.625 C168.70207031 79.6765625 167.90414062 79.728125 167.08203125 79.78125 C165.05674813 79.89815938 163.02813088 79.95390612 161 80 C159.44366231 78.44366231 159.83686743 76.9006869 159.7890625 74.73828125 C159.76070312 73.86623047 159.73234375 72.99417969 159.703125 72.09570312 C159.65159523 70.25995502 159.60716615 68.42399199 159.5703125 66.58789062 C159.37964928 61.1738496 159.08343338 56.08343338 155 52 C150.05683976 51.52407039 150.05683976 51.52407039 145.6875 53.5625 C142.1919174 58.61167487 141.48987308 63.98050229 142 70 C143.26520264 76.48549252 145.44668826 81.2461783 149.6953125 86.30859375 C151 88 151 88 152 91 C152.66 91 153.32 91 154 91 C154 91.66 154 92.32 154 93 C154.721875 93.20625 155.44375 93.4125 156.1875 93.625 C159.93131594 95.45531001 161.6826282 97.55704761 164 101 C164.66026381 104.1692663 164.69114546 105.90992131 162.9375 108.67578125 C160.11693377 112.19309449 158.36908932 113.77647521 153.9375 114.5 C148.19003557 113.77016325 145.20349767 110.81559101 141 107 C140.23171875 106.31292969 139.4634375 105.62585938 138.671875 104.91796875 C126.85996869 93.76897555 120.2044254 80.24499158 118.625 64.1875 C118.8825785 55.73892529 121.96124748 46.07053543 128 40 C135.36314445 33.56473147 141.09782157 31.54503532 150.9140625 31.765625 C157.39687385 32.25799042 160.17247842 35.0391457 164.375 39.6875 C165.59260269 41.11715709 166.80408432 42.55215285 168 44 C168.556875 42.9275 169.11375 41.855 169.6875 40.75 C172.25965842 36.28256695 175.11611731 33.81907943 179.875 31.75 C185.7647652 30.33645635 190.38229978 30.80772674 196 33 C196.556875 31.205625 196.556875 31.205625 197.125 29.375 C197.33382812 28.70210937 197.54265625 28.02921875 197.7578125 27.3359375 C198.08266593 24.20267382 197.04479993 21.93740046 196 19 C195.15713943 18.98969254 194.31427887 18.97938507 193.44587708 18.96876526 C185.40263614 18.86974146 177.35945051 18.76710373 169.31630421 18.66066074 C165.18379117 18.60609172 161.05127085 18.55279738 156.91870117 18.50268555 C139.26231272 18.2877068 121.63055234 18.06318166 104 17 C104.1065818 17.86405205 104.1065818 17.86405205 104.21531677 18.74555969 C105.22450532 28.09148478 105.12648136 37.40666863 105.09765625 46.79296875 C105.09578763 48.59328675 105.09436582 50.39360526 105.09336853 52.19392395 C105.08957832 56.89724164 105.07977851 61.60052769 105.06866455 66.30383301 C105.05837465 71.11726453 105.05385478 75.93070124 105.04882812 80.74414062 C105.03815258 90.1627742 105.02111894 99.58138445 105 109 C101.71219093 109.68799254 98.71721731 110.12052529 95.35546875 110.09765625 C94.09379883 110.09282227 94.09379883 110.09282227 92.80664062 110.08789062 C91.51016602 110.07532227 91.51016602 110.07532227 90.1875 110.0625 C89.30384766 110.05798828 88.42019531 110.05347656 87.50976562 110.04882812 C85.33981441 110.03709866 83.16989828 110.01916495 81 110 C81.88692098 102.39782016 81.88692098 102.39782016 82.52685547 100.14648438 C83.17433618 97.20910025 83.12991038 94.41284223 83.1328125 91.40625 C83.13410156 90.12878906 83.13539063 88.85132813 83.13671875 87.53515625 C83.13462402 86.87273926 83.1325293 86.21032227 83.13037109 85.52783203 C83.1250179 83.50675958 83.13032764 81.48590934 83.13671875 79.46484375 C83.13542969 78.18738281 83.13414062 76.90992188 83.1328125 75.59375 C83.13112061 73.84094727 83.13112061 73.84094727 83.12939453 72.05273438 C83.02137902 69.50438345 82.74979738 67.42139134 82 65 C80.92363281 65.02320313 79.84726562 65.04640625 78.73828125 65.0703125 C77.26305335 65.09100674 75.78778676 65.10904419 74.3125 65.125 C73.15633179 65.13926025 73.15633179 65.13926025 71.97680664 65.15380859 C67.11071245 65.15884335 62.71434533 64.65904652 57.9375 63.625 C53.57968933 62.81423112 53.57968933 62.81423112 49.4921875 64.203125 C47.31001285 65.81465857 47.31001285 65.81465857 45.48828125 67.6171875 C44 69 44 69 42 69 C43.51732835 75.49523014 45.47558948 80.28001865 49.79296875 85.40625 C51 87 51 87 51 89 C51.7734375 89.37125 51.7734375 89.37125 52.5625 89.75 C55 91 55 91 58.0625 93 C62.68915675 95.70730133 67.75789661 96.27956626 73 97 C71.22409413 101.19281918 68.37487885 104.53144285 65.5625 108.0625 C65.07201172 108.68705078 64.58152344 109.31160156 64.07617188 109.95507812 C61.83318751 112.79134851 59.59559152 115.47557257 57 118 C53.23369729 116.74456576 52.40558606 115.11311137 50 112 C49.2575 111.278125 48.515 110.55625 47.75 109.8125 C38.85824303 100.71865765 32.67606588 90.22476543 26.32617188 79.27978516 C25.47974042 77.8247084 24.62268829 76.37572331 23.75195312 74.93505859 C21 70.32710896 21 70.32710896 21 67 C19.948125 66.9071875 19.948125 66.9071875 18.875 66.8125 C14.31231214 65.52304474 11.3523856 62.98488594 8.73046875 59.13671875 C6.30177386 54.71700897 5.22875502 51.109498 6 46 C8.0790985 42.77381267 9.80039529 41.1330698 13 39 C17.88566779 38.45714802 20.89915946 39.32190006 25 42 C28.01668964 45.03531118 31.07494554 48.14989109 33 52 C38.75429481 46.2141748 42.95654746 40.82263971 43.01953125 32.3828125 C42.66254082 27.84297188 41.73236023 24.21221882 40 20 C30.69212723 19.03172741 21.40671273 18.67581476 12.05664062 18.39453125 C10.94611328 18.35714844 9.83558594 18.31976563 8.69140625 18.28125 C7.69310791 18.25095703 6.69480957 18.22066406 5.66625977 18.18945312 C3.30950624 18.0219922 1.26005457 17.66308357 -1 17 C-1.02691685 14.54159395 -1.04679802 12.08348118 -1.0625 9.625 C-1.07087891 8.92632812 -1.07925781 8.22765625 -1.08789062 7.5078125 C-1.11328125 2.2265625 -1.11328125 2.2265625 0 0 Z M59 18 C59.14219971 18.54744873 59.28439941 19.09489746 59.4309082 19.65893555 C60.76380755 25.13590831 61.28352162 30.18765451 61.1875 35.8125 C61.18685547 36.54919922 61.18621094 37.28589844 61.18554688 38.04492188 C61.15752508 41.49160284 61.08052768 44.70655164 60 48 C63.29987875 49.09995958 65.84032287 49.16747591 69.3125 49.1875 C70.97732422 49.20876953 70.97732422 49.20876953 72.67578125 49.23046875 C76.1614641 48.98880566 78.80886665 48.4198231 82 47 C85.72264492 40.06817842 87.4774934 32.4023685 85.36328125 24.671875 C84.15713657 21.05991848 84.15713657 21.05991848 82 18 C80.29227642 17.91286169 78.58101351 17.89299993 76.87109375 17.90234375 C75.83662109 17.90556641 74.80214844 17.90878906 73.73632812 17.91210938 C72.64771484 17.92048828 71.55910156 17.92886719 70.4375 17.9375 C69.34501953 17.94201172 68.25253906 17.94652344 67.12695312 17.95117188 C64.41791505 17.96300174 61.70898401 17.97948457 59 18 Z " fill="#000000" transform="translate(382,216)"/>
<path d="M0 0 C13.2 0 26.4 0 40 0 C41.5225204 3.04504081 41.38315343 6.27609037 41.5625 9.625 C41.6042334 10.37612061 41.6459668 11.12724121 41.68896484 11.90112305 C42.84463048 34.47905594 42.84463048 34.47905594 41 39 C31.22200729 44.61714475 19.63734343 43.34707836 9 41 C8 39 8 39 8.4375 36.4375 C10.13000316 26.09442515 8.84705203 15.71113948 2.8125 6.9375 C2.28269531 6.24527344 1.75289062 5.55304688 1.20703125 4.83984375 C0 3 0 3 0 0 Z " fill="#020004" transform="translate(231,224)"/>
</svg>
